# xmcd
# 
# Track frame offsets:
#     150
#     38235
#     56735
#     87090
#     115525
#     138135
#     161177
#     186675
#     216030
# 
# Disc length: 3248
# 
# Revision: 7
# Processed by: cddbd v1.5.2PL0 Copyright (c) Steve Scherf et al.
# Submitted via: fre:ac v1.0.17
# 
DISCID=7c0cae09
DTITLE=BLACK SABBATH - REUNION [CD1]
DYEAR=1998
DGENRE=Hard Rock
TTITLE0=War Pigs
TTITLE1=Behind The Wall Of Sleep
TTITLE2=N.I.B.
TTITLE3=Fairies Wear Boots
TTITLE4=Electric Funeral
TTITLE5=Sweet Leaf
TTITLE6=Spiral Architect
TTITLE7=Into The Void
TTITLE8=Snowblind
EXTD=YEAR: 1998 ID3G: 79
EXTT0=
EXTT1=
EXTT2=
EXTT3=
EXTT4=
EXTT5=
EXTT6=
EXTT7=
EXTT8=
PLAYORDER=
